<svg width="16" height="16" viewBox="0 0 16 16" xmlns="http://www.w3.org/2000/svg">
<path d="M13 13L3 13V3.00002H10.5C10.7761 3.00002 11 2.77616 11 2.50002V1.5C11 1.22386 10.7761 1 10.5 1H1.5C1.22386 1 1 1.22386 1 1.5V14.5C1 14.7761 1.22386 15 1.5 15H14.5C14.7761 15 15 14.7761 15 14.5V9.49998C15 9.22384 14.7761 8.99998 14.5 8.99998H13.5C13.2239 8.99998 13 9.22384 13 9.49998V13Z"/>
<path d="M14.5758 5.00242C14.7692 4.80844 14.7705 4.49498 14.5788 4.29938L13.8854 3.58553C13.6907 3.38696 13.3715 3.38537 13.1748 3.58201L8.57863 8.1782L6.11683 5.69401C5.92112 5.49621 5.60157 5.49624 5.4059 5.69409L4.6933 6.41813C4.49987 6.6137 4.50074 6.92878 4.69524 7.12328L8.5842 11.0122L14.5758 5.00242Z"/>
</svg>
