<svg width="16" height="16" viewBox="0 0 16 16" xmlns="http://www.w3.org/2000/svg">
<path fill-rule="evenodd" clip-rule="evenodd" d="M2 2C2 1.44772 2.44772 1 3 1H13C13.5523 1 14 1.44772 14 2V8.10002C13.6769 8.03443 13.3425 8 13 8C10.2386 8 8 10.2386 8 13C8 13.7111 8.14845 14.3875 8.41604 15H3C2.44772 15 2 14.5523 2 14V2ZM11 5C11 4.44772 10.5523 4 10 4H6C5.44772 4 5 4.44772 5 5C5 5.55228 5.44772 6 6 6H10C10.5523 6 11 5.55228 11 5Z"/>
<path d="M13.4983 15C13.4983 15.2761 13.2745 15.5 12.9983 15.5H12.1983C11.9222 15.5 11.6983 15.2761 11.6983 15L11.6983 13.2834L9.99999 13.2749C9.72395 13.2738 9.50099 13.0493 9.50193 12.7732L9.50462 11.9732C9.50556 11.697 9.73032 11.4739 10.0066 11.4749L11.6983 11.4834L11.6983 10C11.6983 9.72386 11.9221 9.5 12.1983 9.5H12.9983C13.2744 9.5 13.4983 9.72386 13.4983 10L13.4983 11.4904L15.0066 11.4981C15.2826 11.4992 15.5056 11.7237 15.5046 11.9998L15.5019 12.7998C15.501 13.076 15.2762 13.2992 15 13.2981L13.4983 13.2904L13.4983 15Z"/>
</svg>
