<svg width="16" height="16" viewBox="0 0 16 16" xmlns="http://www.w3.org/2000/svg">
<path d="M5.8 1L7 3H12C12.5523 3 13 3.44772 13 4V6.41604C12.3875 6.14845 11.7111 6 11 6C8.23858 6 6 8.23858 6 11H2C1.44772 11 1 10.5523 1 10V1H5.8Z"/>
<path d="M12.1983 14.1999C12.1983 14.4761 11.9745 14.7 11.6983 14.7H10.8983C10.6222 14.7 10.3983 14.4761 10.3983 14.2L10.3983 11.9834L8.19808 11.9749C7.92204 11.9738 7.69908 11.7492 7.70002 11.4732L7.70271 10.6732C7.70365 10.3969 7.92841 10.1738 8.20464 10.1749L10.3983 10.1834L10.3983 8.19996C10.3983 7.92381 10.6221 7.69995 10.8983 7.69995H11.6983C11.9744 7.69995 12.1983 7.92381 12.1983 8.19995L12.1983 10.1903L14.2047 10.1981C14.4807 10.1991 14.7037 10.4237 14.7027 10.6997L14.7 11.4997C14.6991 11.776 14.4743 11.9991 14.1981 11.9981L12.1983 11.9903L12.1983 14.1999Z"/>
</svg>
