<svg width="16" height="16" viewBox="0 0 16 16" xmlns="http://www.w3.org/2000/svg">
<path d="M4 1H3V3H1V4H3V6H4V4H6V3H4V1Z"/>
<path d="M9.51404 10.1427H9.66602L9.78601 10.1287C9.8042 10.1279 9.82269 10.1257 9.84186 10.1234L9.86279 10.1209C9.88361 10.1186 9.90521 10.1167 9.92798 10.1167H9.99603L10.134 10.0967L10.198 10.0847L10.314 10.0607H10.336C10.8273 9.9373 11.2758 9.68298 11.634 9.32483L14.1799 6.77928C14.705 6.25424 15 5.54214 15 4.79964C15 4.05713 14.705 3.34503 14.1799 2.81999C13.6548 2.29497 12.9426 2 12.2 2C11.4573 2 10.7451 2.29497 10.22 2.81999L8.12207 4.91562C8.09387 4.94391 8.07483 4.97997 8.06738 5.01917C8.06409 5.03651 8.06311 5.05411 8.06439 5.07152C8.06604 5.09348 8.07129 5.11513 8.08008 5.13557C8.09564 5.17236 8.12183 5.20363 8.15533 5.22537C8.18884 5.24712 8.22809 5.25832 8.26807 5.25755H8.34204C8.78027 5.25674 9.21442 5.34166 9.62 5.50751C9.65662 5.52257 9.6969 5.52643 9.73572 5.5186C9.77448 5.51077 9.81012 5.49161 9.83801 5.46352L11.3439 3.95979C11.5692 3.73466 11.8745 3.60818 12.1929 3.60818C12.5114 3.60818 12.8168 3.73466 13.0419 3.95979C13.2671 4.18492 13.3936 4.49026 13.3936 4.80864C13.3936 5.12701 13.2671 5.43236 13.0419 5.65749L11.166 7.53114L11.15 7.54915L10.494 8.20102C10.269 8.4257 9.96399 8.55191 9.646 8.55191C9.328 8.55191 9.02301 8.4257 8.79803 8.20102C8.64594 8.05789 8.44495 7.9782 8.23602 7.9782C8.02716 7.9782 7.82617 8.05789 7.67407 8.20102C7.53735 8.33798 7.45496 8.51985 7.44208 8.71294C7.43823 8.77248 7.4411 8.83208 7.4505 8.89066C7.45898 8.94348 7.47278 8.99548 7.49176 9.04584C7.5318 9.15202 7.59393 9.24849 7.67407 9.32883C7.90552 9.56125 8.17639 9.75082 8.47406 9.88872C8.50201 9.90204 8.52997 9.91357 8.55792 9.92511C8.57196 9.93091 8.586 9.93671 8.60004 9.94272C8.62665 9.9541 8.65399 9.9639 8.68121 9.9736L8.68231 9.97397C8.69769 9.97948 8.71301 9.98497 8.72803 9.99071C8.77002 10.0067 8.81403 10.0207 8.85602 10.0327L8.97406 10.0647C9.02405 10.0772 9.07404 10.0881 9.12451 10.098C9.15479 10.1039 9.18524 10.1094 9.216 10.1147C9.31476 10.1293 9.41425 10.1387 9.51404 10.1427Z"/>
<path d="M4.24384 13.5278C4.70386 13.8353 5.24475 13.9996 5.7981 14C6.16534 14.0013 6.52917 13.9298 6.86865 13.7898C7.20819 13.6498 7.51654 13.4439 7.77606 13.1841L9.87598 11.0845C9.88806 11.0725 9.8985 11.0592 9.9071 11.0447C9.91864 11.0254 9.92682 11.0042 9.93127 10.9819C9.9342 10.9672 9.93549 10.9523 9.93512 10.9375C9.93451 10.913 9.92938 10.8887 9.91986 10.8658C9.90466 10.8292 9.87885 10.7979 9.8457 10.7759C9.81262 10.7539 9.77374 10.7423 9.73401 10.7426H9.65399C9.21527 10.7441 8.78046 10.6599 8.37402 10.4946C8.33746 10.4796 8.29718 10.4757 8.25836 10.4835C8.21954 10.4913 8.18396 10.5105 8.15607 10.5386L6.64612 12.0503C6.42096 12.2755 6.11554 12.4019 5.79712 12.4019C5.4787 12.4019 5.17334 12.2755 4.94812 12.0503C4.72296 11.8252 4.5965 11.5199 4.5965 11.2015C4.5965 10.8831 4.72296 10.5778 4.94812 10.3526L7.50208 7.8011C7.72705 7.57642 8.03204 7.45021 8.35004 7.45021C8.66803 7.45021 8.97302 7.57642 9.198 7.8011C9.35016 7.94423 9.55115 8.02394 9.76001 8.02394C9.96887 8.02394 10.1699 7.94423 10.322 7.8011C10.4578 7.66516 10.5402 7.48486 10.554 7.2932C10.5612 7.17995 10.5443 7.06647 10.5043 6.96028C10.4643 6.8541 10.4022 6.75763 10.322 6.67731C10.1798 6.5343 10.0222 6.40755 9.85199 6.29938C9.40131 6.01079 8.87726 5.85744 8.34204 5.85745C7.97424 5.85677 7.60999 5.92886 7.27014 6.06956C6.93036 6.21027 6.6217 6.41682 6.36212 6.67731L3.81818 9.22284C3.42725 9.61447 3.16113 10.1131 3.05347 10.6559C2.94586 11.1986 3.00146 11.7611 3.21332 12.2722C3.42517 12.7834 3.78375 13.2203 4.24384 13.5278Z"/>
</svg>
