<svg width="16" height="16" viewBox="0 0 16 16" xmlns="http://www.w3.org/2000/svg">
<path fill-rule="evenodd" clip-rule="evenodd" d="M12 2C12.5523 2 13 2.44772 13 3V7L3 7V3C3 2.44772 3.44772 2 4 2H12ZM7.5 4C7.22386 4 7 4.22386 7 4.5C7 4.77614 7.22386 5 7.5 5H8.5C8.77614 5 9 4.77614 9 4.5C9 4.22386 8.77614 4 8.5 4H7.5Z"/>
<path fill-rule="evenodd" clip-rule="evenodd" d="M13 8L3 8V13C3 13.5523 3.44772 14 4 14L12 14C12.5523 14 13 13.5523 13 13L13 8ZM7.5 11C7.22386 11 7 10.7761 7 10.5C7 10.2239 7.22386 10 7.5 10L8.5 10C8.77614 10 9 10.2239 9 10.5C9 10.7761 8.77614 11 8.5 11L7.5 11Z"/>
</svg>
