<svg width="16" height="16" viewBox="0 0 16 16" xmlns="http://www.w3.org/2000/svg">
<path d="M8 8C8 9.65685 6.65685 11 5 11C3.34315 11 2 9.65685 2 8C2 6.34315 3.34315 5 5 5C6.65685 5 8 6.34315 8 8Z"/>
<path d="M9.17253 8.24268C9.17253 8.51882 9.39638 8.74268 9.67253 8.74268H12.0998L11.2602 9.89721C11.0977 10.1205 11.1471 10.4332 11.3704 10.5957L11.7748 10.8898C11.9981 11.0522 12.3108 11.0028 12.4733 10.7795L14.5 7.99271L12.4733 5.20595C12.3108 4.98262 11.9981 4.93325 11.7748 5.09567L11.3704 5.38975C11.1471 5.55217 11.0977 5.86488 11.2602 6.08821L12.0998 7.24268H9.67253C9.39638 7.24268 9.17253 7.46654 9.17253 7.74268V8.24268Z"/>
</svg>
