<svg width="16" height="16" viewBox="0 0 16 16" xmlns="http://www.w3.org/2000/svg">
<path d="M6 7C7.38071 7 8.5 5.88071 8.5 4.5C8.5 3.11929 7.38071 2 6 2C4.61929 2 3.5 3.11929 3.5 4.5C3.5 5.88071 4.61929 7 6 7Z"/>
<path d="M1 12.25C1 10.375 3.23858 8.5 6 8.5C6.7111 8.5 7.38754 8.62434 8 8.84099V13.5H2.25C1.625 13.5 1 12.875 1 12.25Z"/>
<path d="M12.5273 11.9411H10C9.72386 11.9411 9.5 11.7172 9.5 11.4411V10.9411C9.5 10.665 9.72386 10.4411 10 10.4411H12.5273L11.6876 9.28663C11.5252 9.0633 11.5746 8.75059 11.7979 8.58817L12.2023 8.29409C12.4256 8.13167 12.7383 8.18104 12.9007 8.40437L14.9275 11.1911L12.9007 13.9779C12.7383 14.2012 12.4256 14.2506 12.2023 14.0882L11.7979 13.7941C11.5746 13.6317 11.5252 13.319 11.6876 13.0956L12.5273 11.9411Z"/>
</svg>
