<svg width="16" height="16" viewBox="0 0 16 16" xmlns="http://www.w3.org/2000/svg">
<path d="M5.5 8C5.5 9.38071 4.38071 10.5 3 10.5C1.61929 10.5 0.5 9.38071 0.5 8C0.5 6.61929 1.61929 5.5 3 5.5C4.38071 5.5 5.5 6.61929 5.5 8Z"/>
<path d="M12.6296 5.83285C12.7878 5.54443 13.2021 5.54443 13.3603 5.83285L15.4899 9.7163C15.6422 9.99398 15.4413 10.3333 15.1246 10.3333H10.8653C10.5486 10.3333 10.3477 9.99398 10.5 9.7163L12.6296 5.83285Z"/>
<path d="M6.3 8.16705C6.3 8.3516 6.46807 8.5012 6.67541 8.5012H8.49788L7.86744 9.27276C7.7455 9.42201 7.78257 9.63099 7.95025 9.73953L8.25386 9.93607C8.42154 10.0446 8.65632 10.0116 8.77827 9.86237L10.3 8L8.77827 6.13763C8.65632 5.98839 8.42154 5.95539 8.25386 6.06393L7.95025 6.26047C7.78257 6.36901 7.74549 6.57799 7.86744 6.72724L8.49785 7.49876H6.67541C6.46807 7.49876 6.3 7.64837 6.3 7.83291V8.16705Z"/>
</svg>
