<svg width="16" height="16" viewBox="0 0 16 16" xmlns="http://www.w3.org/2000/svg">
<path d="M10.6047 2.3753L13.6399 5.53674C13.8705 5.77845 14 6.1057 14 6.44686C14 6.78801 13.8705 7.11526 13.6399 7.35697L7.99294 13.2524C7.5314 13.7313 6.90716 14 6.2565 14C5.60583 14 4.98159 13.7313 4.52005 13.2524L2.36009 10.9901C2.12948 10.7483 2 10.4211 2 10.0799C2 9.73879 2.12948 9.41153 2.36009 9.16983L8.86822 2.3753C9.09854 2.13499 9.41083 2 9.73644 2C10.0621 2 10.3744 2.13499 10.6047 2.3753ZM3.22125 10.1057L5.39533 12.3165C5.50841 12.4373 5.64346 12.5333 5.79256 12.5988C5.94166 12.6643 6.10179 12.6981 6.26356 12.6981C6.42532 12.6981 6.58546 12.6643 6.73455 12.5988C6.88365 12.5333 7.0187 12.4373 7.13178 12.3165L9.2988 10.1057L6.23532 6.90744L3.22125 10.1057Z"/>
</svg>
