<svg width="16" height="16" viewBox="0 0 16 16" xmlns="http://www.w3.org/2000/svg">
<path fill-rule="evenodd" clip-rule="evenodd" d="M2.27082 12.0223C1.4753 10.8892 1.03363 9.54563 1.00168 8.16153C0.961036 6.30613 1.65798 4.51036 2.93963 3.16814C4.22128 1.82593 5.98298 1.04687 7.83828 1.00186C9.22238 0.969916 10.5849 1.34912 11.7535 2.09152C12.922 2.83392 13.8442 3.90618 14.4034 5.17269C14.9626 6.43921 15.1337 7.8431 14.895 9.20684C14.6563 10.5706 14.0186 11.8329 13.0625 12.8342C12.1064 13.8355 10.8748 14.5308 9.52352 14.8322C8.17224 15.1335 6.76195 15.0274 5.47098 14.5272C4.18002 14.0271 3.06635 13.1554 2.27082 12.0223ZM6.5 4C6.22386 4 6 4.22386 6 4.5V9.5C6 9.77614 6.22386 10 6.5 10H11.5C11.7761 10 12 9.77614 12 9.5V8.5C12 8.22386 11.7767 8 11.5006 8C10.1183 8 8 8 8 8V4.5C8 4.22386 7.77614 4 7.5 4H6.5Z"/>
</svg>
