<svg width="16" height="16" viewBox="0 0 16 16" xmlns="http://www.w3.org/2000/svg">
<path d="M6.2767 12.7764C6.22875 13.0483 6.41033 13.3076 6.68228 13.3556L7.37165 13.4771C7.64359 13.5251 7.90292 13.3435 7.95087 13.0716L9.68736 3.22348C9.73531 2.95153 9.55372 2.6922 9.28178 2.64425L8.59241 2.52269C8.32046 2.47474 8.06113 2.65633 8.01318 2.92827L6.2767 12.7764Z"/>
<path d="M0.853524 7.64622C0.658262 7.84148 0.658261 8.15806 0.853524 8.35333L4.04035 11.5402C4.23561 11.7354 4.5522 11.7354 4.74746 11.5402L5.24243 11.0452C5.43769 10.8499 5.43769 10.5333 5.24243 10.3381L2.90413 7.99977L5.24243 5.66147C5.43769 5.46621 5.43769 5.14963 5.24243 4.95437L4.74746 4.45939C4.5522 4.26413 4.23561 4.26413 4.04035 4.45939L0.853524 7.64622Z"/>
<path d="M11.9596 4.45948L15.1464 7.64631C15.3417 7.84157 15.3417 8.15815 15.1464 8.35342L11.9596 11.5402C11.7643 11.7355 11.4477 11.7355 11.2525 11.5402L10.7575 11.0453C10.5622 10.85 10.5622 10.5334 10.7575 10.3382L13.0958 7.99986L10.7575 5.66156C10.5622 5.4663 10.5622 5.14972 10.7575 4.95446L11.2525 4.45948C11.4477 4.26422 11.7643 4.26422 11.9596 4.45948Z"/>
</svg>
