<svg width="16" height="16" viewBox="0 0 16 16" xmlns="http://www.w3.org/2000/svg">
<path d="M13 13L3 13V3.00002H7.49999C7.77614 3.00002 7.99999 2.77616 7.99999 2.50002V1.5C7.99999 1.22386 7.77613 1 7.49999 1H1.5C1.22386 1 1 1.22386 1 1.5V14.5C1 14.7761 1.22386 15 1.5 15H14.5C14.7761 15 15 14.7761 15 14.5V9.49998C15 9.22384 14.7761 8.99998 14.5 8.99998H13.5C13.2239 8.99998 13 9.22384 13 9.49998V13Z"/>
<path d="M10.4855 7.907H10.5995L10.6895 7.8965C10.7034 7.89587 10.7175 7.89418 10.7321 7.89243C10.7523 7.89002 10.7734 7.8875 10.796 7.8875H10.847L10.9505 7.8725L10.9985 7.8635L11.0855 7.84551H11.102C11.4704 7.75297 11.8069 7.56223 12.0755 7.29361L13.9849 5.38445C14.3788 4.99067 14.6 4.4566 14.6 3.89972C14.6 3.34283 14.3788 2.80876 13.9849 2.41498C13.5911 2.02121 13.0569 1.79999 12.5 1.79999C11.943 1.79999 11.4088 2.02121 11.015 2.41498L9.44155 3.9867C9.42043 4.00792 9.40615 4.03496 9.40054 4.06436C9.39492 4.09376 9.39824 4.12417 9.41005 4.15167C9.42173 4.17925 9.4414 4.20271 9.46653 4.21901C9.49166 4.23532 9.52109 4.24373 9.55105 4.24316H9.60654C9.9352 4.24255 10.2608 4.30624 10.565 4.43062C10.5925 4.44192 10.6227 4.44481 10.6518 4.43894C10.6809 4.43307 10.7076 4.41869 10.7285 4.39763L11.858 3.26983C12.0268 3.10098 12.2559 3.00613 12.4947 3.00613C12.7335 3.00613 12.9626 3.10098 13.1314 3.26983C13.3003 3.43868 13.3952 3.66768 13.3952 3.90647C13.3952 4.14525 13.3003 4.37425 13.1314 4.5431L11.7245 5.94835L11.7125 5.96185L11.2205 6.45076C11.0518 6.61927 10.823 6.71392 10.5845 6.71392C10.346 6.71392 10.1173 6.61927 9.94853 6.45076C9.83446 6.34341 9.6837 6.28363 9.52705 6.28363C9.37039 6.28363 9.21964 6.34341 9.10556 6.45076C9.00302 6.55348 8.9412 6.68988 8.93156 6.83469C8.92614 6.91962 8.93884 7.00473 8.96884 7.08437C8.99884 7.16401 9.04545 7.23636 9.10556 7.29661C9.27916 7.47093 9.4823 7.6131 9.70554 7.71653C9.72654 7.72653 9.74754 7.73519 9.76853 7.74386C9.77904 7.74819 9.78954 7.75252 9.80004 7.75702C9.82002 7.76558 9.8406 7.77294 9.86103 7.78024C9.87279 7.78444 9.88452 7.78863 9.89603 7.79302C9.92753 7.80501 9.96053 7.81551 9.99203 7.82451L10.0805 7.84851C10.1405 7.8635 10.2005 7.8755 10.262 7.886C10.3361 7.897 10.4107 7.90401 10.4855 7.907Z"/>
<path d="M6.53286 10.4458C6.8779 10.6765 7.28356 10.7997 7.6986 10.8C7.97402 10.8009 8.24691 10.7474 8.50152 10.6423C8.75613 10.5373 8.98742 10.3829 9.18206 10.1881L10.757 8.61337C10.7782 8.59239 10.7926 8.56559 10.7985 8.53638C10.8043 8.50718 10.8013 8.47689 10.7899 8.44938C10.7785 8.42186 10.7591 8.39838 10.7343 8.38191C10.7095 8.36544 10.6803 8.35674 10.6505 8.35691H10.5905C10.2615 8.35807 9.93535 8.2949 9.63054 8.17095C9.60309 8.15965 9.57289 8.15675 9.54379 8.16263C9.51468 8.1685 9.48797 8.18288 9.46705 8.20394L8.33458 9.33774C8.16571 9.50658 7.93667 9.60144 7.69785 9.60144C7.45903 9.60144 7.22999 9.50658 7.06112 9.33774C6.89225 9.16889 6.79738 8.93989 6.79738 8.7011C6.79738 8.46232 6.89225 8.23331 7.06112 8.06447L8.97656 6.15081C9.14531 5.9823 9.37405 5.88765 9.61254 5.88765C9.85104 5.88765 10.0798 5.9823 10.2485 6.15081C10.3626 6.25816 10.5134 6.31794 10.67 6.31794C10.8267 6.31794 10.9774 6.25816 11.0915 6.15081C11.1934 6.04886 11.2551 5.91363 11.2655 5.76988C11.2709 5.68495 11.2582 5.59984 11.2282 5.5202C11.1982 5.44056 11.1516 5.36821 11.0915 5.30796C10.9849 5.20072 10.8666 5.10565 10.739 5.02452C10.401 4.80808 10.008 4.69306 9.60654 4.69307C9.3307 4.69256 9.05747 4.74663 8.80262 4.85216C8.54776 4.95769 8.3163 5.1126 8.12159 5.30796L6.21364 7.21712C5.92044 7.51084 5.72087 7.88484 5.64013 8.29189C5.55938 8.69894 5.60109 9.12079 5.75998 9.50415C5.91887 9.88752 6.18782 10.2152 6.53286 10.4458Z"/>
</svg>
