<svg width="16" height="16" viewBox="0 0 16 16" xmlns="http://www.w3.org/2000/svg">
<path d="M2 2C2 1.44772 2.44772 1 3 1H12C12.5523 1 13 1.44772 13 2V3L5.49988 3C4.67145 3 4 3.67157 4 4.5V14H3C2.44772 14 2 13.5523 2 13V2Z"/>
<path fill-rule="evenodd" clip-rule="evenodd" d="M6 4C5.44772 4 5 4.44772 5 5V14C5 14.5523 5.44772 15 6 15H13C13.5523 15 14 14.5523 14 14V5C14 4.44772 13.5523 4 13 4H6ZM11 7C11.5523 7 12 7.44772 12 8C12 8.55228 11.5523 9 11 9H8C7.44772 9 7 8.55228 7 8C7 7.44772 7.44772 7 8 7H11Z"/>
</svg>
