<svg width="16" height="16" viewBox="0 0 16 16" xmlns="http://www.w3.org/2000/svg">
<path fill-rule="evenodd" clip-rule="evenodd" d="M8.14992 1.67991L9.66667 3.5H10.5316C10.8284 3.5 11.1099 3.63182 11.2998 3.85982L13.2682 6.22187C13.418 6.40158 13.5 6.62811 13.5 6.86205V14C13.5 14.2761 13.2761 14.5 13 14.5H5C4.72386 14.5 4.5 14.2761 4.5 14L4.5 12.5H3C2.72386 12.5 2.5 12.2761 2.5 12V2C2.5 1.72386 2.72386 1.5 3 1.5H7.76581C7.9142 1.5 8.05493 1.56591 8.14992 1.67991ZM4.5 3.9993C4.5 3.99907 4.5 3.99953 4.5 3.9993V11.5H3.5V2.5H7.53162L8.36496 3.5H4.5V3.9993ZM5.5 4.5V13.5H12.5V6.86205L10.5316 4.5L5.5 4.5Z"/>
</svg>
