<svg width="16" height="16" viewBox="0 0 16 16" xmlns="http://www.w3.org/2000/svg">
<path fill-rule="evenodd" clip-rule="evenodd" d="M7.89951 1C11.7655 1 14.8995 4.13401 14.8995 8C14.8995 11.866 11.7655 15 7.89951 15C4.03352 15 0.89951 11.866 0.89951 8C0.89951 4.13401 4.03352 1 7.89951 1ZM11.1502 5.1152C11.3454 5.31046 11.3454 5.62705 11.1502 5.82231L9.03605 7.93646L11.1146 10.0151C11.3099 10.2103 11.3099 10.5269 11.1146 10.7222L10.7665 11.0703C10.5712 11.2656 10.2546 11.2656 10.0594 11.0703L7.98081 8.99171L5.86668 11.1059C5.67142 11.3012 5.35483 11.3012 5.15957 11.1059L4.82919 10.7755C4.63393 10.5803 4.63393 10.2637 4.82919 10.0684L6.94333 7.95422L4.79361 5.80449C4.59835 5.60923 4.59835 5.29264 4.79362 5.09738L5.14176 4.74926C5.33703 4.554 5.65361 4.554 5.84887 4.74926L7.99859 6.899L10.1127 4.78486C10.308 4.5896 10.6246 4.5896 10.8198 4.78486L11.1502 5.1152Z"/>
</svg>
