<svg width="16" height="16" viewBox="0 0 16 16" xmlns="http://www.w3.org/2000/svg">
<path d="M11.2797 5.81469C11.3725 5.68214 11.2777 5.5 11.1159 5.5L9.5 5.5V2.5C9.5 2.22386 9.27614 2 9 2L7 2C6.72386 2 6.5 2.22386 6.5 2.5V5.5L4.88413 5.5C4.72233 5.5 4.6275 5.68214 4.72028 5.81469L7.83615 10.2659C7.91577 10.3797 8.08423 10.3797 8.16385 10.2659L11.2797 5.81469ZM3.5 11C3.22386 11 3 11.2239 3 11.5V14.5C3 14.7761 3.22386 15 3.5 15H12.5C12.7761 15 13 14.7761 13 14.5V11.5C13 11.2239 12.7761 11 12.5 11H3.5Z"/>
</svg>
