<svg width="16" height="16" viewBox="0 0 16 16" xmlns="http://www.w3.org/2000/svg">
<path d="M13 13L3 13V3.00002H7.49999C7.77614 3.00002 7.99999 2.77616 7.99999 2.50002V1.5C7.99999 1.22386 7.77613 1 7.49999 1H1.5C1.22386 1 1 1.22386 1 1.5V14.5C1 14.7761 1.22386 15 1.5 15H14.5C14.7761 15 15 14.7761 15 14.5V9.49998C15 9.22384 14.7761 8.99998 14.5 8.99998H13.5C13.2239 8.99998 13 9.22384 13 9.49998V13Z"/>
<path d="M5.5 10.8V8.72306L10.7623 3.51879L12.7812 5.53774L7.57692 10.8H5.5Z"/>
<path d="M14.3425 3.21729C14.5525 3.42726 14.5525 3.76645 14.3425 3.97642L13.3573 4.96166L11.3383 2.94271L12.3236 1.95747C12.5335 1.7475 12.8727 1.7475 13.0827 1.95747L14.3425 3.21729Z"/>
</svg>
