<svg width="16" height="16" viewBox="0 0 16 16" xmlns="http://www.w3.org/2000/svg">
<path d="M6.5 13C6.22386 13 6 13.2239 6 13.5V14.5C6 14.7761 6.22386 15 6.5 15H14.5C14.7761 15 15 14.7761 15 14.5L15 1.5C15 1.22386 14.7761 1 14.5 1H6.5C6.22386 1 6 1.22386 6 1.5V2.50002C6 2.77616 6.22386 3.00002 6.5 3.00002H13V13H6.5Z"/>
<path d="M7.5 8.92959V10.0588C7.5 10.218 7.67684 10.3134 7.80984 10.226L10.7457 8.29673C10.8659 8.21773 10.8659 8.04145 10.7457 7.96244L7.80984 6.03319C7.67684 5.9458 7.5 6.04119 7.5 6.20033V7.32959H1.2C1.08954 7.32959 1 7.41913 1 7.52959V8.72959C1 8.84004 1.08954 8.92959 1.2 8.92959H7.5Z"/>
</svg>
