<svg width="16" height="16" viewBox="0 0 16 16" xmlns="http://www.w3.org/2000/svg">
<path d="M6.5 1H10V3.00002H6.5C6.22386 3.00002 6 2.77616 6 2.50002V1.5C6 1.22386 6.22386 1 6.5 1Z"/>
<path d="M13 13V6H15V14.5C15 14.7761 14.7761 15 14.5 15H6.5C6.22386 15 6 14.7761 6 14.5V13.5C6 13.2239 6.22386 13 6.5 13H13Z"/>
<path d="M6.5 8.92959V10.0588C6.5 10.218 6.67684 10.3134 6.80984 10.226L9.74566 8.29673C9.86587 8.21773 9.86587 8.04145 9.74566 7.96244L6.80984 6.03319C6.67684 5.9458 6.5 6.04119 6.5 6.20033V7.32959H0.2C0.0895429 7.32959 0 7.41913 0 7.52959V8.72959C0 8.84004 0.0895429 8.92959 0.2 8.92959H6.5Z"/>
<circle cx="13" cy="3" r="2" fill="#D6645C"/>
</svg>
