<svg width="16" height="16" viewBox="0 0 16 16" xmlns="http://www.w3.org/2000/svg">
<path d="M1 1.5C1 1.22386 1.22386 1 1.5 1L9.49999 1.00001C9.77613 1.00001 9.99998 1.22386 9.99998 1.50001V2.50001C9.99998 2.77615 9.77613 3.00001 9.49998 3.00001H2.99998L2.99997 13H9.49997C9.77611 13 9.99997 13.2239 9.99997 13.5V14.5C9.99997 14.7761 9.77611 15 9.49997 15H1.5C1.22386 15 1 14.7761 1 14.5V1.5Z"/>
<path d="M11.5 8.92958V10.0588C11.5 10.218 11.6768 10.3134 11.8098 10.226L14.7457 8.29673C14.8659 8.21772 14.8659 8.04145 14.7457 7.96244L11.8098 6.03319C11.6768 5.9458 11.5 6.04119 11.5 6.20033V7.32959H5.2C5.08954 7.32959 5 7.41913 5 7.52958V8.72959C5 8.84004 5.08954 8.92958 5.2 8.92958H11.5Z"/>
</svg>
