<svg width="16" height="16" viewBox="0 0 16 16" xmlns="http://www.w3.org/2000/svg">
<path d="M10 14.5V10H4.99878C4.72264 10 4.5 9.77614 4.5 9.5V6.5C4.5 6.22386 4.72386 6 5 6H10V1H1.5C1.22386 1 1 1.22386 1 1.5L1.00003 14.5C1.00003 14.7761 1.22389 15 1.50003 15H9.5C9.77614 15 10 14.7761 10 14.5Z"/>
<path d="M5.79999 8.24268C5.79999 8.51882 6.02384 8.74268 6.29999 8.74268H12.2273L11.3876 9.89721C11.2252 10.1205 11.2746 10.4332 11.4979 10.5957L11.9023 10.8898C12.1256 11.0522 12.4383 11.0028 12.6007 10.7795L14.6275 7.99271L12.6007 5.20595C12.4383 4.98262 12.1256 4.93325 11.9023 5.09567L11.4979 5.38975C11.2746 5.55217 11.2252 5.86488 11.3876 6.08821L12.2272 7.24268H6.29999C6.02384 7.24268 5.79999 7.46654 5.79999 7.74268V8.24268Z"/>
</svg>
