<svg width="16" height="16" viewBox="0 0 16 16" xmlns="http://www.w3.org/2000/svg">
<path d="M1 5.5C1 5.22386 1.22386 5 1.5 5H7.5C7.77614 5 8 5.22386 8 5.5V6.5H8.62285C8.84609 6.5 9.04228 6.64799 9.10361 6.86264L9.92716 9.74506C9.96366 9.87282 9.86773 10 9.73485 10H8C8 10.5523 7.55228 11 7 11C6.44772 11 6 10.5523 6 10H4C4 10.5523 3.55228 11 3 11C2.44772 11 2 10.5523 2 10H1V5.5Z"/>
<path d="M10 7.24268L10.435 8.74268H12.8623L12.0226 9.89721C11.8602 10.1205 11.9096 10.4332 12.1329 10.5957L12.5373 10.8898C12.7606 11.0522 13.0733 11.0028 13.2357 10.7795L15.2625 7.99271L13.2357 5.20595C13.0733 4.98262 12.7606 4.93325 12.5373 5.09567L12.1329 5.38975C11.9096 5.55217 11.8602 5.86488 12.0226 6.08821L12.8623 7.24268H10Z"/>
</svg>
