<svg width="16" height="16" viewBox="0 0 16 16" xmlns="http://www.w3.org/2000/svg">
<path d="M4.00727 6.85113C4.0013 6.96286 4.09181 7.05472 4.2037 7.05472H6.19024C6.3007 7.05472 6.38964 6.96506 6.39533 6.85475C6.42209 6.33567 6.55405 5.88474 6.78049 5.56087C6.92141 5.36388 7.09485 5.21067 7.30081 5.10123C7.51762 4.98085 7.77236 4.92066 8.06504 4.92066C8.49865 4.92066 8.83469 5.04104 9.07317 5.2818C9.32249 5.52257 9.44715 5.89466 9.44715 6.39808C9.45799 6.69357 9.40379 6.93981 9.28455 7.1368C9.17615 7.33379 9.02981 7.51436 8.84553 7.67852C8.66125 7.84268 8.4607 8.00684 8.2439 8.171C8.0271 8.33516 7.82114 8.53214 7.62602 8.76197C7.43089 8.98084 7.25745 9.24897 7.10569 9.56634C6.93321 9.95479 6.86461 10.3778 6.8491 10.8C6.84505 10.9104 6.93507 11 7.04553 11L8.84065 11C8.95111 11 9.03945 10.9101 9.05278 10.8005C9.08585 10.5285 9.18619 10.2624 9.34959 10.0424C9.52304 9.82353 9.71816 9.63201 9.93496 9.46785C10.1518 9.29275 10.3794 9.12312 10.6179 8.95896C10.8672 8.78385 11.0894 8.57592 11.2846 8.33515C11.4905 8.09439 11.6585 7.80437 11.7886 7.46511C11.9295 7.12585 12 6.69357 12 6.16826C12 5.85089 11.9295 5.51163 11.7886 5.15048C11.6585 4.77838 11.4363 4.43365 11.122 4.11628C10.8076 3.7989 10.3902 3.53625 9.86992 3.32832C9.36043 3.10944 8.72087 3 7.95122 3C7.35501 3 6.81301 3.10397 6.3252 3.3119C5.84824 3.50889 5.43631 3.78796 5.08943 4.14911C4.75339 4.51026 4.4878 4.93707 4.29268 5.42955C4.12977 5.86492 4.03463 6.33878 4.00727 6.85113Z"/>
<path d="M7 13C7 12.4477 7.44772 12 8 12C8.55228 12 9 12.4477 9 13C9 13.5523 8.55228 14 8 14C7.44772 14 7 13.5523 7 13Z"/>
</svg>
