<svg width="16" height="16" viewBox="0 0 16 16" xmlns="http://www.w3.org/2000/svg">
<path fill-rule="evenodd" clip-rule="evenodd" d="M1 8C1 4.13401 4.13401 1 8 1C11.866 1 15 4.13401 15 8C15 11.866 11.866 15 8 15C4.13401 15 1 11.866 1 8ZM8.64895 9.26065C8.64012 9.36975 8.55197 9.45788 8.44251 9.45788H7.37034C7.25988 9.45788 7.1699 9.36829 7.17354 9.2579C7.18142 9.01862 7.20385 8.80509 7.24083 8.61731C7.29145 8.37509 7.3746 8.15817 7.49029 7.96656C7.60598 7.77133 7.76144 7.58514 7.95667 7.40799C8.12659 7.25976 8.27482 7.12057 8.40136 6.99042C8.52789 6.85665 8.62551 6.71927 8.6942 6.57827C8.76289 6.43727 8.79723 6.28362 8.79723 6.11731C8.79723 5.91847 8.7665 5.75578 8.70504 5.62925C8.6472 5.49909 8.56043 5.40148 8.44474 5.3364C8.33266 5.26771 8.19167 5.23337 8.02175 5.23337C7.88075 5.23337 7.74879 5.2659 7.62587 5.33098C7.50295 5.39244 7.40352 5.49006 7.3276 5.62382C7.27559 5.71546 7.2397 5.8266 7.21993 5.95726C7.20379 6.06391 7.11729 6.14985 7.00943 6.14985H5.70429C5.5922 6.14985 5.50126 6.05758 5.51026 5.94584C5.54453 5.52049 5.65862 5.1655 5.85255 4.88087C6.0767 4.54826 6.37677 4.30423 6.75277 4.14877C7.13237 3.98969 7.55537 3.91016 8.02175 3.91016C8.53874 3.91016 8.98162 3.9915 9.35038 4.15419C9.72276 4.31688 10.0066 4.5573 10.2018 4.87545C10.4006 5.1936 10.5001 5.58225 10.5001 6.04139C10.5001 6.35593 10.4404 6.6325 10.3211 6.87111C10.2018 7.10611 10.0427 7.32664 9.84387 7.53272C9.64503 7.73517 9.42449 7.94667 9.18227 8.16721C8.97619 8.35159 8.8352 8.5432 8.75927 8.74204C8.70174 8.88999 8.66496 9.06286 8.64895 9.26065ZM8.8 11.8C8.8 12.2418 8.44183 12.6 8.00001 12.6C7.55818 12.6 7.20001 12.2418 7.20001 11.8C7.20001 11.3582 7.55818 11 8.00001 11C8.44183 11 8.8 11.3582 8.8 11.8Z"/>
</svg>
