<svg width="16" height="16" viewBox="0 0 16 16" xmlns="http://www.w3.org/2000/svg">
<path fill-rule="evenodd" clip-rule="evenodd" d="M8 15C11.866 15 15 11.866 15 8C15 4.13401 11.866 1 8 1C4.13401 1 1 4.13401 1 8C1 11.866 4.13401 15 8 15ZM7 4.5C7 3.94772 7.44772 3.5 8 3.5C8.55229 3.5 9 3.94772 9 4.5C9 5.05228 8.55229 5.5 8 5.5C7.44772 5.5 7 5.05228 7 4.5ZM8.5 7C8.77614 7 9 7.22386 9 7.5V12C9 12.2761 8.77614 12.5 8.5 12.5H7.5C7.22386 12.5 7 12.2761 7 12V7.5C7 7.22386 7.22386 7 7.5 7H8.5Z"/>
</svg>
