<svg width="16" height="16" viewBox="0 0 16 16" xmlns="http://www.w3.org/2000/svg">
<path d="M6.5 5.5C6.5 5.22386 6.72386 5 7 5H13C13.2761 5 13.5 5.22386 13.5 5.5V6.5H14.1229C14.3461 6.5 14.5423 6.64799 14.6036 6.86264L15.4272 9.74506C15.4637 9.87282 15.3677 10 15.2349 10H13.5C13.5 10.5523 13.0523 11 12.5 11C11.9477 11 11.5 10.5523 11.5 10H9.5C9.5 10.5523 9.05229 11 8.5 11C7.94772 11 7.5 10.5523 7.5 10H6.5V5.5Z"/>
<path d="M1.52588e-05 8.24268C1.52588e-05 8.51882 0.223873 8.74268 0.500015 8.74268H2.92731L2.08765 9.89721C1.92523 10.1205 1.97461 10.4332 2.19793 10.5957L2.6023 10.8898C2.82563 11.0522 3.13833 11.0028 3.30075 10.7795L5.32749 7.99271L3.30075 5.20595C3.13833 4.98262 2.82563 4.93325 2.6023 5.09567L2.19793 5.38975C1.97461 5.55217 1.92523 5.86488 2.08765 6.08821L2.92727 7.24268H0.500015C0.223873 7.24268 1.52588e-05 7.46654 1.52588e-05 7.74268V8.24268Z"/>
</svg>
