<svg width="16" height="16" viewBox="0 0 16 16" xmlns="http://www.w3.org/2000/svg">
<path d="M5 14.5V12H7.98538C8.30833 12 8.6114 11.844 8.79912 11.5812L10.7094 8.90687C10.8984 8.64225 11 8.32519 11 8C11 7.67481 10.8984 7.35775 10.7094 7.09313L8.79912 4.41876C8.6114 4.15597 8.30833 4 7.98538 4H5V1H14.5C14.7761 1 15 1.22386 15 1.5L15 14.5C15 14.7761 14.7761 15 14.5 15H5.5C5.22386 15 5 14.7761 5 14.5Z"/>
<path d="M1 8.24268C1 8.51882 1.22386 8.74268 1.5 8.74268H7.42729L6.58764 9.89721C6.42522 10.1205 6.47459 10.4332 6.69792 10.5957L7.10228 10.8898C7.32561 11.0522 7.63832 11.0028 7.80074 10.7795L9.82747 7.99271L7.80074 5.20595C7.63832 4.98262 7.32561 4.93325 7.10228 5.09567L6.69792 5.38975C6.47459 5.55217 6.42521 5.86488 6.58763 6.08821L7.42725 7.24268H1.5C1.22386 7.24268 1 7.46654 1 7.74268V8.24268Z"/>
</svg>
