<svg width="16" height="16" viewBox="0 0 16 16" xmlns="http://www.w3.org/2000/svg">
<path fill-rule="evenodd" clip-rule="evenodd" d="M14.75 5.75C14.75 7.82107 13.0711 9.5 11 9.5C10.5048 9.5 10.0321 9.40403 9.59935 9.22967L4.7206 14.1084C4.52534 14.3037 4.20875 14.3037 4.01349 14.1084L3.73504 13.83C3.69916 13.8089 3.66533 13.7829 3.63453 13.7521L1.84164 11.9592C1.64637 11.764 1.64638 11.4474 1.84164 11.2521L3.25585 9.83793C3.45111 9.64267 3.7677 9.64267 3.96296 9.83793L4.70926 10.5842L7.72156 7.57193C7.42115 7.03251 7.25 6.41124 7.25 5.75C7.25 3.67893 8.92893 2 11 2C13.0711 2 14.75 3.67893 14.75 5.75ZM12.25 5.75C12.25 6.44036 11.6904 7 11 7C10.3096 7 9.75 6.44036 9.75 5.75C9.75 5.05964 10.3096 4.5 11 4.5C11.6904 4.5 12.25 5.05964 12.25 5.75Z"/>
</svg>
