<svg width="16" height="16" viewBox="0 0 16 16" xmlns="http://www.w3.org/2000/svg">
<path d="M4.79812 14C4.24473 13.9996 3.70386 13.8353 3.24381 13.5278C2.78375 13.2203 2.42516 12.7834 2.2133 12.2722C2.00145 11.7611 1.94584 11.1986 2.0535 10.6559C2.16115 10.1131 2.42725 9.61447 2.81818 9.22284L5.36211 6.6773C5.62173 6.41682 5.93034 6.21027 6.27015 6.06956C6.60996 5.92886 6.97425 5.85677 7.34205 5.85745C7.87727 5.85743 8.40128 6.0108 8.85201 6.29937C9.02219 6.40755 9.17982 6.53431 9.32199 6.6773C9.40214 6.75763 9.46428 6.8541 9.50428 6.96028C9.54428 7.06647 9.56122 7.17995 9.55399 7.29319C9.54019 7.48486 9.45784 7.66516 9.32199 7.8011C9.16989 7.94423 8.96889 8.02394 8.76001 8.02394C8.55113 8.02394 8.35013 7.94423 8.19803 7.8011C7.97303 7.57642 7.66804 7.45022 7.35005 7.45022C7.03206 7.45022 6.72707 7.57642 6.50208 7.8011L3.94815 10.3526C3.72299 10.5778 3.59649 10.8831 3.59649 11.2015C3.59649 11.5199 3.72299 11.8252 3.94815 12.0503C4.17331 12.2755 4.4787 12.4019 4.79712 12.4019C5.11555 12.4019 5.42094 12.2755 5.6461 12.0503L7.15606 10.5386C7.18396 10.5105 7.21957 10.4914 7.25837 10.4835C7.29718 10.4757 7.33744 10.4796 7.37405 10.4946C7.78046 10.6599 8.21527 10.7441 8.65401 10.7426H8.73401C8.77374 10.7423 8.81263 10.7539 8.84573 10.7759C8.87883 10.7979 8.90465 10.8292 8.91988 10.8659C8.93511 10.9025 8.93907 10.9429 8.93126 10.9819C8.92345 11.0208 8.90421 11.0565 8.87601 11.0845L6.77607 13.1841C6.51655 13.4439 6.20816 13.6498 5.86868 13.7898C5.5292 13.9298 5.16535 14.0013 4.79812 14Z"/>
<path d="M8.66601 10.1427H8.51402C8.41426 10.1387 8.31478 10.1293 8.21602 10.1147C8.13403 10.1007 8.05403 10.0847 7.97403 10.0647L7.85604 10.0327C7.81404 10.0207 7.77004 10.0067 7.72804 9.9907C7.68604 9.97471 7.64204 9.96071 7.60004 9.94271C7.55804 9.92472 7.51604 9.90872 7.47405 9.88872C7.17639 9.75082 6.90554 9.56125 6.67407 9.32882C6.59392 9.24849 6.53178 9.15203 6.49178 9.04584C6.45179 8.93965 6.43484 8.82617 6.44208 8.71293C6.45493 8.51986 6.53735 8.33799 6.67407 8.20103C6.82617 8.05789 7.02718 7.97819 7.23605 7.97819C7.44493 7.97819 7.64593 8.05789 7.79804 8.20103C8.02303 8.42571 8.32802 8.55191 8.64601 8.55191C8.964 8.55191 9.26899 8.42571 9.49399 8.20103L10.15 7.54914L10.166 7.53115L12.0419 5.65748C12.2671 5.43236 12.3936 5.12702 12.3936 4.80864C12.3936 4.49026 12.2671 4.18492 12.0419 3.95979C11.8168 3.73466 11.5114 3.60819 11.1929 3.60819C10.8745 3.60819 10.5691 3.73466 10.344 3.95979L8.83801 5.46352C8.81011 5.4916 8.7745 5.51077 8.73569 5.5186C8.69688 5.52644 8.65662 5.52258 8.62001 5.50751C8.2144 5.34166 7.78026 5.25675 7.34205 5.25756H7.26805C7.22812 5.25832 7.18887 5.24711 7.15536 5.22537C7.12186 5.20363 7.09563 5.17236 7.08006 5.13558C7.06431 5.09891 7.05989 5.05837 7.06737 5.01917C7.07486 4.97997 7.0939 4.94391 7.12206 4.91562L9.22 2.82C9.74511 2.29496 10.4573 2 11.1999 2C11.9426 2 12.6548 2.29496 13.1799 2.82C13.705 3.34503 14 4.05713 14 4.79964C14 5.54215 13.705 6.25425 13.1799 6.77928L10.634 9.32482C10.2758 9.68299 9.82725 9.93731 9.33599 10.0607H9.31399L9.198 10.0847L9.134 10.0967L8.996 10.1167H8.928C8.87601 10.1167 8.83001 10.1267 8.78601 10.1287L8.66601 10.1427Z"/>
</svg>
