<svg width="16" height="16" viewBox="0 0 16 16" xmlns="http://www.w3.org/2000/svg">
<path fill-rule="evenodd" clip-rule="evenodd" d="M3 6.5H4.5V4.91304C4.5 2.75193 5.92893 1 8 1C10.0711 1 11.5 2.75193 11.5 4.91304V6.5H13C13.5523 6.5 14 6.94772 14 7.5V14C14 14.5523 13.5523 15 13 15H3C2.44772 15 2 14.5523 2 14V7.5C2 6.94772 2.44772 6.5 3 6.5ZM8 2.56522C6.75736 2.56522 6 3.61637 6 4.91304V6.5H10V4.91304C10 3.61637 9.24264 2.56522 8 2.56522ZM8 12C8.82843 12 9.5 11.3284 9.5 10.5C9.5 9.67157 8.82843 9 8 9C7.17157 9 6.5 9.67157 6.5 10.5C6.5 11.3284 7.17157 12 8 12Z"/>
</svg>
