<svg width="16" height="16" viewBox="0 0 16 16" xmlns="http://www.w3.org/2000/svg">
<path d="M8 2C4.68421 2 2 4.68421 2 8C2 11.3158 4.68421 14 8 14C8.88421 14 9.8 13.7789 10.6842 13.3684L10.1474 12.2316C9.45263 12.5474 8.72632 12.7368 8.03158 12.7368C5.41053 12.7368 3.29474 10.6211 3.29474 8C3.29474 5.37895 5.41053 3.26316 8.03158 3.26316C10.6526 3.26316 12.7684 5.37895 12.7684 8C12.7684 10.0526 12.1687 10.0526 11.7263 10.0526C10.8083 10.0526 10.8737 8.02211 10.8737 5.63158C10.8737 5.34737 10.6842 5.12632 10.4319 5.03158C7.45211 3.79021 4.71611 4.69179 4.71611 8C4.71611 11.2315 7.24305 11.8113 10.274 10.6526C10.5898 11.0632 11.0316 11.3471 11.6951 11.3471C14 11.3158 14 8.82105 14 8C14 4.68421 11.3158 2 8 2ZM5.94737 8C5.94737 5.75537 7.62326 5.37516 9.57895 6.07368C9.57895 7.50295 9.55147 8.54379 9.76842 9.48421C7.61505 10.2617 5.94737 10.2705 5.94737 8Z"/>
</svg>
