<svg width="16" height="16" viewBox="0 0 16 16" xmlns="http://www.w3.org/2000/svg">
<path d="M15 3.5C15 2.67157 14.3284 2 13.5 2C12.6716 2 12 2.67157 12 3.5C12 4.32843 12.6716 5 13.5 5C14.3284 5 15 4.32843 15 3.5Z"/>
<path d="M15 8C15 7.17157 14.3284 6.5 13.5 6.5C12.6716 6.5 12 7.17157 12 8C12 8.82843 12.6716 9.5 13.5 9.5C14.3284 9.5 15 8.82843 15 8Z" />
<path d="M15 12.5C15 11.6716 14.3284 11 13.5 11C12.6716 11 12 11.6716 12 12.5C12 13.3284 12.6716 14 13.5 14C14.3284 14 15 13.3284 15 12.5Z"/>
<path d="M6.5 8C6.5 9.65685 5.15685 11 3.5 11C1.84315 11 0.5 9.65685 0.5 8C0.5 6.34315 1.84315 5 3.5 5C5.15685 5 6.5 6.34315 6.5 8Z"/>
<path d="M10 3.5C10 3.22386 10.2239 3 10.5 3C10.7761 3 11 3.22386 11 3.5V12.5C11 12.7761 10.7761 13 10.5 13C10.2239 13 10 12.7761 10 12.5V8.5H7.5C7.22386 8.5 7 8.27614 7 8C7 7.72386 7.22386 7.5 7.5 7.5H10V3.5Z"/>
</svg>
