<svg width="16" height="16" viewBox="0 0 16 16" xmlns="http://www.w3.org/2000/svg">
<path d="M8 10.5C8.29667 10.5 8.58668 10.588 8.83335 10.7528C9.08003 10.9176 9.27229 11.1519 9.38582 11.426C9.49935 11.7001 9.52905 12.0017 9.47118 12.2926C9.4133 12.5836 9.27044 12.8509 9.06066 13.0607C8.85088 13.2704 8.58361 13.4133 8.29263 13.4712C8.00166 13.5291 7.70006 13.4993 7.42597 13.3858C7.15189 13.2723 6.91762 13.08 6.7528 12.8334C6.58797 12.5867 6.5 12.2967 6.5 12C6.5 11.6022 6.65804 11.2206 6.93934 10.9393C7.22064 10.658 7.60218 10.5 8 10.5ZM8 6C8.29667 6 8.58668 6.08797 8.83336 6.2528C9.08003 6.41762 9.27229 6.65189 9.38582 6.92597C9.49935 7.20006 9.52906 7.50166 9.47118 7.79263C9.4133 8.08361 9.27044 8.35088 9.06066 8.56066C8.85088 8.77044 8.58361 8.9133 8.29264 8.97118C8.00166 9.02906 7.70006 8.99935 7.42597 8.88582C7.15189 8.77229 6.91762 8.58003 6.7528 8.33335C6.58797 8.08668 6.5 7.79667 6.5 7.5C6.5 7.10217 6.65804 6.72064 6.93934 6.43934C7.22064 6.15804 7.60218 6 8 6ZM8 1.5C8.29667 1.5 8.58668 1.58797 8.83336 1.7528C9.08003 1.91762 9.27229 2.15189 9.38582 2.42597C9.49935 2.70006 9.52906 3.00166 9.47118 3.29264C9.4133 3.58361 9.27044 3.85088 9.06066 4.06066C8.85088 4.27044 8.58361 4.4133 8.29264 4.47118C8.00166 4.52906 7.70006 4.49935 7.42597 4.38582C7.15189 4.27229 6.91762 4.08003 6.7528 3.83335C6.58797 3.58668 6.5 3.29667 6.5 3C6.5 2.60218 6.65804 2.22064 6.93934 1.93934C7.22064 1.65804 7.60218 1.5 8 1.5Z"/>
</svg>
