<svg width="16" height="16" viewBox="0 0 16 16" xmlns="http://www.w3.org/2000/svg">
<path d="M4.26665 7.00007L4.26665 6.05538C4.26665 5.8927 4.08277 5.79808 3.9504 5.89263L1.22783 7.83733C1.11616 7.91709 1.11616 8.08305 1.22783 8.16282L3.9504 10.1075C4.08277 10.2021 4.26665 10.1074 4.26665 9.94477L4.26665 9.00007L6.99998 9.00007L6.99998 11.7334L6.05528 11.7334C5.89261 11.7334 5.79799 11.9173 5.89254 12.0497L7.83723 14.7722C7.917 14.8839 8.08296 14.8839 8.16273 14.7722L10.1074 12.0497C10.202 11.9173 10.1073 11.7334 9.94467 11.7334L8.99998 11.7334L8.99998 9.00007L11.7333 9.00007L11.7333 9.94477C11.7333 10.1074 11.9172 10.2021 12.0496 10.1075L14.7721 8.16282C14.8838 8.08306 14.8838 7.91709 14.7721 7.83733L12.0496 5.89263C11.9172 5.79808 11.7333 5.8927 11.7333 6.05538L11.7333 7.00007L8.99998 7.00007L8.99998 4.26674L9.94468 4.26674C10.1074 4.26674 10.202 4.08287 10.1074 3.95049L8.16273 1.22792C8.08296 1.11625 7.917 1.11625 7.83723 1.22792L5.89254 3.95049C5.79799 4.08286 5.89261 4.26674 6.05528 4.26674L6.99998 4.26674L6.99998 7.00007L4.26665 7.00007Z"/>
</svg>
