<svg width="16" height="16" viewBox="0 0 16 16" xmlns="http://www.w3.org/2000/svg">
<path d="M1.20001 1.39995C1.20001 1.28949 1.28956 1.19995 1.40001 1.19995H4.60001C4.71047 1.19995 4.80001 1.28949 4.80001 1.39995V4.59995C4.80001 4.71041 4.71047 4.79995 4.60001 4.79995H3.79999V6.99997H6V5.99993C6 5.88947 6.08954 5.79993 6.2 5.79993H9.4C9.51046 5.79993 9.6 5.88947 9.6 5.99993V9.19993C9.6 9.31038 9.51046 9.39993 9.4 9.39993H6.2C6.08954 9.39993 6 9.31038 6 9.19993V8.49997H3.79999L3.79999 12H6V10.9999C6 10.8895 6.08954 10.7999 6.2 10.7999H9.4C9.51046 10.7999 9.6 10.8895 9.6 10.9999V14.1999C9.6 14.3104 9.51046 14.3999 9.4 14.3999H6.2C6.08954 14.3999 6 14.3104 6 14.1999V13.5H2.79999C2.52385 13.5 2.29999 13.2761 2.29999 13V4.79995H1.40001C1.28956 4.79995 1.20001 4.71041 1.20001 4.59995V1.39995Z"/>
<path d="M12.1296 9.71161H11.0003C10.8412 9.71161 10.7458 9.88845 10.8332 10.0214L12.7624 12.9573C12.8414 13.0775 13.0177 13.0775 13.0967 12.9573L15.026 10.0214C15.1134 9.88845 15.018 9.71161 14.8588 9.71161H13.7296V7.69994C13.7296 7.58948 13.64 7.49994 13.5296 7.49994H12.3296C12.2191 7.49994 12.1296 7.58948 12.1296 7.69994V9.71161Z"/>
</svg>
