<svg width="16" height="16" viewBox="0 0 16 16" xmlns="http://www.w3.org/2000/svg">
<path fill-rule="evenodd" clip-rule="evenodd" d="M1 3C1 2.72386 1.22386 2.5 1.5 2.5L14.5 2.5C14.7761 2.5 15 2.72386 15 3L15 13C15 13.2761 14.7761 13.5 14.5 13.5L1.5 13.5C1.22386 13.5 1 13.2761 1 13L1 3ZM9.5559 6.55588L9.04453 6.55588C8.88186 6.55588 8.78723 6.37201 8.88179 6.23963L9.99315 4.68373C10.0729 4.57206 10.2389 4.57206 10.3186 4.68373L11.43 6.23963C11.5246 6.37201 11.4299 6.55588 11.2673 6.55588H10.7559V7.95588L12 7.95588V7.44452C12 7.28185 12.1839 7.18722 12.3162 7.28177L13.8722 8.39314C13.9838 8.4729 13.9838 8.63887 13.8722 8.71863L12.3162 9.82999C12.1839 9.92454 12 9.82992 12 9.66725V9.15588L10.7559 9.15588V10.5559H11.2673C11.4299 10.5559 11.5246 10.7398 11.43 10.8721L10.3186 12.428C10.2389 12.5397 10.0729 12.5397 9.99315 12.428L8.88179 10.8721C8.78723 10.7398 8.88186 10.5559 9.04453 10.5559H9.5559L9.5559 9.15588L8.2559 9.15588L8.2559 9.66724C8.2559 9.82992 8.07202 9.92454 7.93965 9.82999L6.38374 8.71863C6.27207 8.63886 6.27207 8.4729 6.38374 8.39314L7.93965 7.28177C8.07202 7.18722 8.2559 7.28185 8.2559 7.44452V7.95588L9.5559 7.95588V6.55588Z"/>
</svg>
