<svg width="16" height="16" viewBox="0 0 16 16" xmlns="http://www.w3.org/2000/svg">
<path fill-rule="evenodd" clip-rule="evenodd" d="M5.47315 8.74756H4.9751V10H4.26221V6.44531H5.47315C5.7124 6.44531 5.91829 6.49577 6.09082 6.59668C6.26335 6.69759 6.39518 6.83675 6.48633 7.01416C6.5791 7.18994 6.62549 7.39176 6.62549 7.61963C6.62549 7.84912 6.5791 8.0485 6.48633 8.21777C6.39518 8.38542 6.26335 8.51563 6.09082 8.6084C5.91829 8.70117 5.7124 8.74756 5.47315 8.74756ZM4.9751 7.03857V8.1543H5.47315C5.57406 8.1543 5.65625 8.13151 5.71973 8.08594C5.78483 8.04037 5.83203 7.9777 5.86133 7.89795C5.89063 7.81657 5.90527 7.72542 5.90527 7.62451C5.90527 7.52197 5.88981 7.42676 5.85889 7.33887C5.82959 7.24935 5.7832 7.17692 5.71973 7.12158C5.65788 7.06624 5.57568 7.03857 5.47315 7.03857H4.9751Z"/>
<path fill-rule="evenodd" clip-rule="evenodd" d="M8.03174 10H7.104V6.44531H8.0415C8.24658 6.44531 8.43294 6.47868 8.60059 6.54541C8.76823 6.61214 8.91227 6.7098 9.03271 6.83838C9.15316 6.96533 9.24593 7.1224 9.31104 7.30957C9.37614 7.49675 9.40869 7.70996 9.40869 7.94922V8.49854C9.40869 8.73942 9.37614 8.95264 9.31104 9.13818C9.24593 9.32373 9.15316 9.48079 9.03271 9.60938C8.9139 9.73633 8.76986 9.83317 8.60059 9.8999C8.43132 9.96663 8.2417 10 8.03174 10ZM8.03174 9.40918H7.81934V7.03857H8.0415C8.16683 7.03857 8.27181 7.05566 8.35645 7.08984C8.44108 7.12402 8.50863 7.17692 8.55908 7.24854C8.60954 7.31852 8.64535 7.4113 8.6665 7.52686C8.68766 7.64079 8.69824 7.77995 8.69824 7.94434V8.49854C8.69824 8.71501 8.6779 8.88997 8.63721 9.02344C8.59815 9.1569 8.5306 9.25456 8.43457 9.31641C8.33854 9.37826 8.20426 9.40918 8.03174 9.40918Z"/>
<path d="M10.6465 7.95654V7.03857H11.8965V6.44531H9.93115V10H10.6465V8.54736H11.7598V7.95654H10.6465Z"/>
<path fill-rule="evenodd" clip-rule="evenodd" d="M1 2.5V13.5C1 14.3284 1.67157 15 2.5 15L13.5 15C14.3284 15 15 14.3284 15 13.5V4.53518C15 3.86648 14.6658 3.24201 14.1094 2.87108L11.8066 1.3359C11.4781 1.11688 11.0921 1 10.6972 1H2.5C1.67157 1 1 1.67157 1 2.5ZM2.5 14C2.22386 14 2 13.7761 2 13.5L2 2.5C2 2.22386 2.22386 2 2.5 2L10.6972 2C10.8947 2 11.0877 2.05844 11.2519 2.16795L13.5547 3.70313C13.8329 3.8886 14 4.20083 14 4.53518V13.5C14 13.7761 13.7761 14 13.5 14L2.5 14Z"/>
</svg>
