<svg width="16" height="16" viewBox="0 0 16 16" xmlns="http://www.w3.org/2000/svg">
<path d="M14 8.49999C14 8.77613 13.7762 9 13.5 9L8.99999 9V13.5C8.99999 13.7762 8.77613 14.0001 8.49998 14L7.49999 14C7.22385 14 7 13.7762 7 13.5V9L2.5 9.00003C2.22386 9.00003 2 8.77617 2 8.50003V7.50005C2 7.22391 2.22386 7.00006 2.5 7.00005L7 7.00002V2.5C7 2.22385 7.22386 2 7.50001 2L8.5 2.00002C8.77614 2.00002 8.99999 2.22388 8.99999 2.50002V7.00006L13.5 7.00006C13.7761 7.00006 14 7.22391 14 7.50005L14 8.49999Z"/>
</svg>
