<svg width="16" height="16" viewBox="0 0 16 16" xmlns="http://www.w3.org/2000/svg">
<path fill-rule="evenodd" clip-rule="evenodd" d="M3 5V2C3 1.44772 3.44772 1 4 1H12C12.5523 1 13 1.44772 13 2V5H14C14.5523 5 15 5.44772 15 6V11C15 11.5523 14.5523 12 14 12H13V14C13 14.5523 12.5523 15 12 15H4C3.44772 15 3 14.5523 3 14V12H2C1.44772 12 1 11.5523 1 11V6C1 5.44772 1.44772 5 2 5H3ZM4 2H12V5H4V2ZM4 12V14H12V12H4ZM3 9.5C3 9.77614 3.22386 10 3.5 10H4.5C4.77614 10 5 9.77614 5 9.5C5 9.22386 4.77614 9 4.5 9H3.5C3.22386 9 3 9.22386 3 9.5Z"/>
</svg>
