<svg width="16" height="16" viewBox="0 0 16 16" xmlns="http://www.w3.org/2000/svg">
<path d="M8 3C4.81818 3 2.10091 5.07333 1 8C2.10091 10.9267 4.81818 13 8 13C11.1818 13 13.8991 10.9267 15 8C13.8991 5.07333 11.1818 3 8 3ZM8 11.3333C6.24364 11.3333 4.81818 9.84 4.81818 8C4.81818 6.16 6.24364 4.66667 8 4.66667C9.75636 4.66667 11.1818 6.16 11.1818 8C11.1818 9.84 9.75636 11.3333 8 11.3333ZM8 6C6.94364 6 6.09091 6.89333 6.09091 8C6.09091 9.10667 6.94364 10 8 10C9.05636 10 9.90909 9.10667 9.90909 8C9.90909 6.89333 9.05636 6 8 6Z"/>
</svg>
