<svg width="16" height="16" viewBox="0 0 16 16" xmlns="http://www.w3.org/2000/svg">
<path d="M9.02605 5.45378L12.257 5.23886C12.3817 5.23057 12.4683 5.11135 12.4376 4.99026L11.6436 1.85101C11.602 1.68662 11.3876 1.64531 11.2879 1.78249L10.6043 2.72339C9.72505 2.29977 8.75049 2.09461 7.76445 2.13335C6.41777 2.18626 5.12813 2.69102 4.10332 3.56629C3.07851 4.44156 2.37822 5.63637 2.1153 6.95819C1.85237 8.28 2.04212 9.65185 2.65397 10.8527C3.26582 12.0535 4.26413 13.0134 5.48805 13.5776C6.71197 14.1418 8.0902 14.2776 9.40068 13.9629C10.7112 13.6483 11.8775 12.9017 12.7119 11.8433C13.5049 10.8373 13.9541 9.60548 13.9967 8.32872C14.0004 8.21832 13.9105 8.12873 13.8 8.12873H12.2C12.0896 8.12873 12.0005 8.21834 11.995 8.32866C11.9536 9.15601 11.6562 9.95198 11.1413 10.6051C10.585 11.3107 9.80744 11.8085 8.93379 12.0182C8.06014 12.228 7.14131 12.1375 6.32537 11.7613C5.50942 11.3851 4.84388 10.7452 4.43598 9.94469C4.02808 9.14414 3.90158 8.22958 4.07687 7.34837C4.25215 6.46715 4.71901 5.67062 5.40221 5.0871C6.08542 4.50359 6.94518 4.16709 7.84297 4.13181C8.37686 4.11083 8.90572 4.19711 9.39958 4.38157L8.85097 5.13666C8.7513 5.27385 8.85686 5.46503 9.02605 5.45378Z"/>
</svg>
