<svg width="16" height="16" viewBox="0 0 16 16" xmlns="http://www.w3.org/2000/svg">
<path fill-rule="evenodd" clip-rule="evenodd" d="M6.99999 3C6.99999 2.44772 7.44771 2 7.99999 2H14C14.5523 2 15 2.44772 15 3V7H6.99999V3ZM10.5 5C10.2239 5 9.99999 4.77614 9.99999 4.5C9.99999 4.22386 10.2239 4 10.5 4H11.5C11.7761 4 12 4.22386 12 4.5C12 4.77614 11.7761 5 11.5 5H10.5Z"/>
<path fill-rule="evenodd" clip-rule="evenodd" d="M15 8H6.99999V13C6.99999 13.5523 7.44771 14 7.99999 14H14C14.5523 14 15 13.5523 15 13V8ZM10.5 11C10.2239 11 9.99999 10.7761 9.99999 10.5C9.99999 10.2239 10.2239 10 10.5 10H11.5C11.7761 10 12 10.2239 12 10.5C12 10.7761 11.7761 11 11.5 11H10.5Z"/>
<path d="M0.700012 7.85293C0.700012 8.12907 0.92387 8.35293 1.20001 8.35293H3.62731L2.78765 9.50746C2.62523 9.73079 2.6746 10.0435 2.89793 10.2059L3.3023 10.5C3.52562 10.6624 3.83833 10.613 4.00075 10.3897L6.02749 7.60296L4.00075 4.8162C3.83833 4.59287 3.52562 4.5435 3.3023 4.70591L2.89793 5C2.6746 5.16242 2.62523 5.47513 2.78765 5.69845L3.62726 6.85293H1.20001C0.92387 6.85293 0.700012 7.07679 0.700012 7.35293V7.85293Z"/>
</svg>
