<svg width="16" height="16" viewBox="0 0 16 16" xmlns="http://www.w3.org/2000/svg">
<path d="M14.4002 2.08788C13.7598 1.48957 12.7208 1.48885 12.0796 2.08627L8.77844 5.1619L11.0975 7.32858L14.3987 4.25295C15.0399 3.65552 15.0406 2.68619 14.4002 2.08788Z"/>
<path d="M8.05862 14.9046C8.02225 14.9639 7.95768 15 7.88812 15L6.37379 15C6.21405 15 6.11877 14.822 6.20738 14.6891L8.00009 12L5.13651 13.9091C5.05719 13.962 4.95156 13.9515 4.88415 13.8841L3.05861 12.0586C3.0211 12.0211 3.00003 11.9702 3.00003 11.9172L3.00003 10.2C3.00003 10.0896 2.91049 10 2.80003 10H1.20003C1.08957 10 1.00003 9.9105 1.00003 9.80004L1.00003 8.11827C1.00003 8.04534 1.03972 7.9782 1.10362 7.94304L6.32389 5.07078C6.63032 4.88522 7.05713 4.94153 7.33874 5.20464L11.1183 8.73581C11.3999 8.99892 11.4596 9.3972 11.2604 9.68284L8.05862 14.9046Z"/>
</svg>
