<svg width="16" height="16" viewBox="0 0 16 16" xmlns="http://www.w3.org/2000/svg">
<path fill-rule="evenodd" clip-rule="evenodd" d="M1 3C1 2.44772 1.44772 2 2 2H8C8.55229 2 9 2.44772 9 3V7H1V3ZM4.5 5C4.22386 5 4 4.77614 4 4.5C4 4.22386 4.22386 4 4.5 4H5.5C5.77614 4 6 4.22386 6 4.5C6 4.77614 5.77614 5 5.5 5H4.5Z"/>
<path fill-rule="evenodd" clip-rule="evenodd" d="M9 8H1V13C1 13.5523 1.44772 14 2 14H8C8.55229 14 9 13.5523 9 13V8ZM4.5 11C4.22386 11 4 10.7761 4 10.5C4 10.2239 4.22386 10 4.5 10H5.5C5.77614 10 6 10.2239 6 10.5C6 10.7761 5.77614 11 5.5 11H4.5Z"/>
<path d="M10 7.74268C10 8.01882 10.2239 8.24268 10.5 8.24268H12.9273L12.0876 9.39721C11.9252 9.62054 11.9746 9.93325 12.1979 10.0957L12.6023 10.3898C12.8256 10.5522 13.1383 10.5028 13.3007 10.2795L15.3275 7.49271L13.3007 4.70595C13.1383 4.48262 12.8256 4.43325 12.6023 4.59567L12.1979 4.88975C11.9746 5.05217 11.9252 5.36488 12.0876 5.58821L12.9273 6.74268H10.5C10.2239 6.74268 10 6.96654 10 7.24268V7.74268Z"/>
</svg>
