<svg width="16" height="16" viewBox="0 0 16 16" xmlns="http://www.w3.org/2000/svg">
<path fill-rule="evenodd" clip-rule="evenodd" d="M11.1464 2.14645C11.0527 2.05269 10.9255 2.00001 10.7929 2.00001L2.5 2C2.22386 2 2 2.22386 2 2.5V13.5C2 13.7761 2.22386 14 2.5 14H13.5C13.7761 14 14 13.7761 14 13.5V5.20711C14 5.07451 13.9473 4.94733 13.8536 4.85356L11.1464 2.14645ZM10 5.50001C10 5.77615 9.77614 6.00001 9.5 6.00001H4.5C4.22386 6.00001 4 5.77615 4 5.50001V3H10V5.50001ZM5 9C5 8.72386 5.22386 8.5 5.5 8.5H10.5C10.7761 8.5 11 8.72386 11 9C11 9.27614 10.7761 9.5 10.5 9.5H5.5C5.22386 9.5 5 9.27614 5 9ZM11 11C11 10.7239 10.7761 10.5 10.5 10.5H5.5C5.22386 10.5 5 10.7239 5 11C5 11.2761 5.22386 11.5 5.5 11.5H10.5C10.7761 11.5 11 11.2761 11 11Z"/>
</svg>
