<svg width="16" height="16" viewBox="0 0 16 16" xmlns="http://www.w3.org/2000/svg">
<path d="M7.5 2C7.22386 2 7 2.22386 7 2.5V7.5C7 7.77614 7.22386 8 7.5 8H8.5C8.77614 8 9 7.77614 9 7.5V2.5C9 2.22386 8.77614 2 8.5 2H7.5Z"/>
<path d="M5.22016 2.95035C5.34931 2.88284 5.5 2.97913 5.5 3.12486V5.14506C5.16277 5.41506 4.86886 5.74 4.63209 6.10952C4.11242 6.92054 3.90286 7.89184 4.04191 8.84497C4.18096 9.79811 4.65927 10.6691 5.38897 11.2978C6.11868 11.9266 7.05076 12.2709 8.01398 12.2675C8.97719 12.2642 9.90685 11.9133 10.6321 11.2795C11.3574 10.6457 11.8297 9.77141 11.9621 8.81733C12.0944 7.86325 11.8781 6.89344 11.3528 6.08607C11.1186 5.72612 10.83 5.40924 10.5 5.14504V3.12485C10.5 2.97912 10.6507 2.88282 10.7798 2.95034C11.6868 3.42451 12.4637 4.12623 13.0292 4.99533C13.8172 6.20638 14.1417 7.6611 13.9431 9.09222C13.7445 10.5233 13.0362 11.8347 11.9482 12.7855C10.8603 13.7362 9.46578 14.2625 8.02096 14.2675C6.57613 14.2726 5.17801 13.7561 4.08345 12.8129C2.9889 11.8698 2.27143 10.5634 2.06286 9.13368C1.85429 7.70398 2.16863 6.24704 2.94813 5.03051C3.51515 4.14559 4.3006 3.43112 5.22016 2.95035Z"/>
</svg>
