<svg width="16" height="16" viewBox="0 0 16 16" xmlns="http://www.w3.org/2000/svg">
<path d="M6 2H5.2V4.4H6V2Z"/>
<path d="M2 5.2V6H4.4V5.2L2 5.2Z"/>
<path d="M2.27964 2.84535L2.84532 2.27966L4.54865 3.98299L3.98296 4.54867L2.27964 2.84535Z"/>
<path d="M12.0419 5.65748L10.2628 7.4344L11.3937 8.56523L13.1799 6.77928C13.705 6.25425 14 5.54215 14 4.79964C14 4.05713 13.705 3.34503 13.1799 2.82C12.6548 2.29496 11.9426 2 11.1999 2C10.4573 2 9.74511 2.29496 9.22 2.82L7.43322 4.6048L8.5493 5.72087C8.63779 5.64185 8.7338 5.55625 8.83801 5.46352L10.344 3.95979C10.5691 3.73466 10.8745 3.60819 11.1929 3.60819C11.5114 3.60819 11.8168 3.73466 12.0419 3.95979C12.2671 4.18492 12.3936 4.49026 12.3936 4.80864C12.3936 5.12702 12.2671 5.43236 12.0419 5.65748Z"/>
<path d="M2.81818 9.22284L4.60573 7.43416L5.73702 8.56544L3.94815 10.3526C3.72299 10.5778 3.59649 10.8831 3.59649 11.2015C3.59649 11.5199 3.72299 11.8252 3.94815 12.0503C4.17331 12.2755 4.4787 12.4019 4.79712 12.4019C5.11555 12.4019 5.42094 12.2755 5.6461 12.0503L7.43376 10.2622L8.56602 11.3944L6.77607 13.1841C6.51655 13.4439 6.20816 13.6498 5.86868 13.7898C5.5292 13.9298 5.16535 14.0013 4.79812 14C4.24473 13.9996 3.70386 13.8353 3.24381 13.5278C2.78375 13.2203 2.42516 12.7834 2.2133 12.2722C2.00145 11.7611 1.94584 11.1986 2.0535 10.6559C2.16115 10.1131 2.42725 9.61447 2.81818 9.22284Z"/>
<path d="M14 10V10.8H11.6V10H14Z"/>
<path d="M10 14H10.8V11.6L10 11.6V14Z"/>
<path d="M13.1547 13.7203L13.7204 13.1547L12.017 11.4513L11.4514 12.017L13.1547 13.7203Z"/>
</svg>
