<svg width="16" height="16" viewBox="0 0 16 16" xmlns="http://www.w3.org/2000/svg">
<path d="M2.5 2C1.67163 2 1 2.67157 1 3.5C1 4.32843 1.67163 5 2.5 5C3.32837 5 4 4.32843 4 3.5C4 2.67157 3.32837 2 2.5 2Z"/>
<path d="M2.5 6.5C1.67163 6.5 1 7.17157 1 8C1 8.82843 1.67163 9.5 2.5 9.5C3.32837 9.5 4 8.82843 4 8C4 7.17157 3.32837 6.5 2.5 6.5Z"/>
<path d="M2.5 11C1.67163 11 1 11.6716 1 12.5C1 13.3284 1.67163 14 2.5 14C3.32837 14 4 13.3284 4 12.5C4 11.6716 3.32837 11 2.5 11Z"/>
<path d="M15.5 8C15.5 9.65685 14.1569 11 12.5 11C10.8431 11 9.5 9.65685 9.5 8C9.5 6.34315 10.8431 5 12.5 5C14.1569 5 15.5 6.34315 15.5 8Z"/>
<path d="M6 3.5C6 3.22386 5.77614 3 5.5 3C5.22386 3 5 3.22386 5 3.5V12.5C5 12.7761 5.22386 13 5.5 13C5.77614 13 6 12.7761 6 12.5V8.5H8.5C8.77614 8.5 9 8.27614 9 8C9 7.72386 8.77614 7.5 8.5 7.5H6V3.5Z"/>
</svg>
