<svg width="16" height="16" viewBox="0 0 16 16" xmlns="http://www.w3.org/2000/svg">
<path d="M9.63818 9.06494C9.63818 9.00146 9.63249 8.94369 9.62109 8.8916C9.6097 8.83952 9.58529 8.7915 9.54785 8.74756C9.51204 8.70361 9.45915 8.65967 9.38916 8.61572C9.3208 8.57178 9.23128 8.52621 9.12061 8.479C8.98877 8.42367 8.861 8.36507 8.73731 8.30322C8.61361 8.23975 8.50212 8.1665 8.40283 8.0835C8.30355 8.00049 8.22461 7.90283 8.16602 7.79053C8.10905 7.6766 8.08057 7.54313 8.08057 7.39014C8.08057 7.2404 8.10742 7.10449 8.16113 6.98242C8.21647 6.86035 8.2946 6.75619 8.39551 6.66992C8.49642 6.58203 8.61442 6.51449 8.74951 6.46729C8.88623 6.42008 9.03841 6.39648 9.20606 6.39648C9.43392 6.39648 9.63086 6.44369 9.79688 6.53809C9.96452 6.63249 10.0939 6.76188 10.1851 6.92627C10.2778 7.09066 10.3242 7.27946 10.3242 7.49268H9.61133C9.61133 7.39176 9.59668 7.30306 9.56738 7.22656C9.53971 7.14844 9.49496 7.0874 9.43311 7.04346C9.37126 6.99951 9.2915 6.97754 9.19385 6.97754C9.1027 6.97754 9.02702 6.99626 8.9668 7.03369C8.9082 7.0695 8.86426 7.11914 8.83496 7.18262C8.80729 7.24447 8.79346 7.31445 8.79346 7.39258C8.79346 7.45117 8.80729 7.50407 8.83496 7.55127C8.86426 7.59684 8.90413 7.63835 8.95459 7.67578C9.00505 7.71159 9.06445 7.74658 9.13281 7.78076C9.2028 7.81494 9.2793 7.84831 9.36231 7.88086C9.52344 7.94434 9.66585 8.01432 9.78955 8.09082C9.91325 8.16569 10.0166 8.25033 10.0996 8.34473C10.1826 8.4375 10.2453 8.54248 10.2876 8.65967C10.3299 8.77686 10.3511 8.91032 10.3511 9.06006C10.3511 9.20817 10.325 9.34326 10.273 9.46533C10.2225 9.58578 10.1484 9.68994 10.0508 9.77783C9.95313 9.8641 9.83512 9.93083 9.69678 9.97803C9.56006 10.0252 9.40706 10.0488 9.23779 10.0488C9.07341 10.0488 8.91797 10.026 8.77148 9.98047C8.625 9.93327 8.49561 9.86247 8.3833 9.76807C8.27262 9.67204 8.18555 9.55078 8.12207 9.4043C8.05859 9.25619 8.02686 9.08122 8.02686 8.8794H8.74219C8.74219 8.98682 8.75277 9.07878 8.77393 9.15527C8.79509 9.23014 8.82764 9.29037 8.87158 9.33594C8.91553 9.37988 8.96924 9.41325 9.03272 9.43604C9.09782 9.45719 9.17188 9.46777 9.25488 9.46777C9.34928 9.46777 9.42415 9.44987 9.47949 9.41406C9.53646 9.37826 9.57715 9.33024 9.60156 9.27002C9.62598 9.2098 9.63818 9.14144 9.63818 9.06494Z"/>
<path d="M4.08154 7.63184L3.57373 6.44531H2.75586L3.625 8.19092L2.73633 10H3.53955L4.04492 8.78662L4.55029 10H5.37061L4.49658 8.20557L5.35352 6.44531H4.56494L4.08154 7.63184Z"/>
<path d="M7.71436 10V9.40918H6.45703V6.44531H5.7417V10H7.71436Z"/>
<path d="M11.9722 7.63184L11.4644 6.44531H10.6465L11.5156 8.19092L10.627 10H11.4302L11.9355 8.78662L12.4409 10H13.2612L12.3872 8.20557L13.2441 6.44531H12.4556L11.9722 7.63184Z"/>
<path fill-rule="evenodd" clip-rule="evenodd" d="M1 2.5V13.5C1 14.3284 1.67157 15 2.5 15L13.5 15C14.3284 15 15 14.3284 15 13.5V4.53518C15 3.86648 14.6658 3.24201 14.1094 2.87108L11.8066 1.3359C11.4781 1.11688 11.0921 1 10.6972 1H2.5C1.67157 1 1 1.67157 1 2.5ZM2.5 14C2.22386 14 2 13.7761 2 13.5L2 2.5C2 2.22386 2.22386 2 2.5 2L10.6972 2C10.8947 2 11.0877 2.05844 11.2519 2.16795L13.5547 3.70313C13.8329 3.8886 14 4.20083 14 4.53518V13.5C14 13.7761 13.7761 14 13.5 14L2.5 14Z"/>
</svg>
