<svg width="16" height="16" viewBox="0 0 16 16" xmlns="http://www.w3.org/2000/svg">
<path d="M4.29999 5.79999C4.02385 5.79999 3.79999 6.02385 3.79999 6.29999C3.79999 6.57613 4.02385 6.79999 4.29999 6.79999H8.29999C8.57613 6.79999 8.79999 6.57613 8.79999 6.29999C8.79999 6.02385 8.57613 5.79999 8.29999 5.79999H4.29999Z"/>
<path fill-rule="evenodd" clip-rule="evenodd" d="M11.6705 6.33524C11.6705 7.47982 11.3072 8.54435 10.6873 9.41684L14.7493 13.5201C15.0848 13.859 15.0834 14.4054 14.7462 14.7426C14.4075 15.0812 13.8584 15.081 13.5201 14.7422L9.4486 10.6645C8.57024 11.2983 7.49374 11.6705 6.33524 11.6705C3.38854 11.6705 1 9.28193 1 6.33524C1 3.38854 3.38854 1 6.33524 1C9.28193 1 11.6705 3.38854 11.6705 6.33524ZM2.64161 6.33524C2.64161 8.37904 4.29143 10.0289 6.33524 10.0289C8.37904 10.0289 10.0289 8.37904 10.0289 6.33524C10.0289 4.29143 8.37904 2.64161 6.33524 2.64161C4.29143 2.64161 2.64161 4.29143 2.64161 6.33524Z"/>
</svg>
