<svg width="16" height="16" viewBox="0 0 16 16" xmlns="http://www.w3.org/2000/svg">
<path d="M10.6873 9.41684C11.3072 8.54435 11.6705 7.47982 11.6705 6.33524C11.6705 3.38854 9.28193 1 6.33524 1C3.38854 1 1 3.38854 1 6.33524C1 9.28193 3.38854 11.6705 6.33524 11.6705C7.49374 11.6705 8.57024 11.2983 9.4486 10.6645L13.5201 14.7422C13.8584 15.081 14.4075 15.0812 14.7462 14.7426C15.0834 14.4054 15.0848 13.859 14.7493 13.5201L10.6873 9.41684ZM6.33524 10.0289C4.29143 10.0289 2.64161 8.37904 2.64161 6.33524C2.64161 4.29143 4.29143 2.64161 6.33524 2.64161C8.37904 2.64161 10.0289 4.29143 10.0289 6.33524C10.0289 8.37904 8.37904 10.0289 6.33524 10.0289Z"/>
<path d="M6.8 4.29999C6.8 4.02385 6.57614 3.79999 6.3 3.79999C6.02386 3.79999 5.8 4.02385 5.8 4.29999L5.8 5.79999H4.3C4.02386 5.79999 3.8 6.02385 3.8 6.29999C3.8 6.57613 4.02386 6.79999 4.3 6.79999H5.8V8.29999C5.8 8.57613 6.02386 8.79999 6.3 8.79999C6.57614 8.79999 6.8 8.57613 6.8 8.29999V6.79999H8.3C8.57614 6.79999 8.8 6.57613 8.8 6.29999C8.8 6.02385 8.57614 5.79999 8.3 5.79999H6.8V4.29999Z"/>
</svg>
